<svg viewBox="0 0 24 24" fill="none" xmlns="http://www.w3.org/2000/svg">
  <path d="M12 2C8.13 2 5 5.13 5 9c0 1.74.64 3.31 1.69 4.5L5 16.5c-.28.28-.28.72 0 1l1.5 1.5c.28.28.72.28 1 0l3-3c1.19 1.05 2.76 1.69 4.5 1.69 3.87 0 7-3.13 7-7s-3.13-7-7-7z" fill="#4f46e5"/>
  <circle cx="9.5" cy="8.5" r="1.5" fill="white"/>
  <circle cx="14.5" cy="8.5" r="1.5" fill="white"/>
  <path d="M9 12c0 1.66 1.34 3 3 3s3-1.34 3-3" stroke="white" stroke-width="1.5" stroke-linecap="round" fill="none"/>
  <rect x="11" y="19" width="2" height="3" fill="#6b7280"/>
  <rect x="10" y="22" width="4" height="1" fill="#6b7280"/>
  <circle cx="6.5" cy="5.5" r="1" fill="#10b981"/>
  <circle cx="17.5" cy="5.5" r="1" fill="#ef4444"/>
  <circle cx="18.5" cy="12.5" r="1" fill="#f59e0b"/>
</svg>
