<?xml version="1.0" encoding="UTF-8"?>
<svg id="Layer_2" data-name="Layer 2" xmlns="http://www.w3.org/2000/svg" xmlns:xlink="http://www.w3.org/1999/xlink" viewBox="0 0 170.71 203.68">
  <defs>
    <style>
      .cls-1 {
        fill: url(#linear-gradient-12);
      }

      .cls-1, .cls-2, .cls-3, .cls-4, .cls-5, .cls-6, .cls-7, .cls-8, .cls-9, .cls-10, .cls-11, .cls-12, .cls-13, .cls-14, .cls-15, .cls-16, .cls-17, .cls-18, .cls-19, .cls-20, .cls-21, .cls-22, .cls-23, .cls-24, .cls-25, .cls-26, .cls-27, .cls-28, .cls-29, .cls-30 {
        stroke-width: 0px;
      }

      .cls-2 {
        fill: url(#linear-gradient-17);
      }

      .cls-3 {
        fill: url(#linear-gradient-19);
      }

      .cls-4 {
        fill: url(#linear-gradient);
      }

      .cls-5 {
        fill: url(#linear-gradient-21);
      }

      .cls-7 {
        fill: url(#linear-gradient-15);
      }

      .cls-8 {
        fill: url(#linear-gradient-11);
      }

      .cls-9 {
        fill: #4153a4;
      }

      .cls-10 {
        fill: url(#linear-gradient-5);
      }

      .cls-11 {
        fill: none;
      }

      .cls-12 {
        fill: url(#linear-gradient-6);
        opacity: .25;
      }

      .cls-12, .cls-27 {
        isolation: isolate;
      }

      .cls-13 {
        fill: url(#linear-gradient-13);
      }

      .cls-14 {
        fill: url(#linear-gradient-16);
      }

      .cls-15 {
        fill: url(#linear-gradient-22);
      }

      .cls-16, .cls-27 {
        fill: #fff;
      }

      .cls-17 {
        fill: url(#linear-gradient-20);
      }

      .cls-18 {
        fill: url(#linear-gradient-14);
      }

      .cls-19 {
        fill: url(#linear-gradient-2);
      }

      .cls-20 {
        fill: url(#linear-gradient-7);
      }

      .cls-21 {
        fill: #cac2e0;
      }

      .cls-22 {
        fill: url(#linear-gradient-3);
      }

      .cls-23 {
        fill: url(#linear-gradient-9);
      }

      .cls-24 {
        fill: url(#linear-gradient-8);
      }

      .cls-25 {
        fill: url(#linear-gradient-18);
      }

      .cls-26 {
        fill: url(#linear-gradient-10);
      }

      .cls-27 {
        opacity: .08;
      }

      .cls-28 {
        fill: url(#linear-gradient-4);
      }

      .cls-29 {
        fill: #f5c944;
      }

      .cls-30 {
        fill: #141416;
      }
    </style>
    <linearGradient id="linear-gradient" x1="115.6" y1="1314.88" x2="115.6" y2="1199.66" gradientTransform="translate(0 1434.76) scale(1 -1)" gradientUnits="userSpaceOnUse">
      <stop offset=".27" stop-color="#fdd900"/>
      <stop offset=".35" stop-color="#fbca03"/>
      <stop offset=".5" stop-color="#f8a50d"/>
      <stop offset=".7" stop-color="#f3691d"/>
      <stop offset=".78" stop-color="#f25224"/>
    </linearGradient>
    <linearGradient id="linear-gradient-2" x1="110.58" y1="1328.84" x2="110.58" y2="1238.24" gradientTransform="translate(0 1434.76) scale(1 -1)" gradientUnits="userSpaceOnUse">
      <stop offset=".17" stop-color="#fdd900"/>
      <stop offset=".25" stop-color="#fbd101"/>
      <stop offset=".36" stop-color="#f9be05"/>
      <stop offset=".49" stop-color="#f49e0b"/>
      <stop offset=".64" stop-color="#ee7114"/>
      <stop offset=".8" stop-color="#e63a20"/>
    </linearGradient>
    <linearGradient id="linear-gradient-3" x1="120.49" y1="1324.43" x2="120.49" y2="1224.25" gradientTransform="translate(0 1434.76) scale(1 -1)" gradientUnits="userSpaceOnUse">
      <stop offset=".16" stop-color="#fdd900"/>
      <stop offset=".23" stop-color="#fcd101"/>
      <stop offset=".35" stop-color="#fabb06"/>
      <stop offset=".48" stop-color="#f7990e"/>
      <stop offset=".64" stop-color="#f26919"/>
      <stop offset=".76" stop-color="#ef3f23"/>
    </linearGradient>
    <linearGradient id="linear-gradient-4" x1="100.53" y1="1328.59" x2="100.53" y2="1236.32" gradientTransform="translate(0 1434.76) scale(1 -1)" gradientUnits="userSpaceOnUse">
      <stop offset=".1" stop-color="#fdd900"/>
      <stop offset=".39" stop-color="#f8a40f"/>
      <stop offset=".78" stop-color="#f26322"/>
    </linearGradient>
    <linearGradient id="linear-gradient-5" x1="75.72" y1="1385.49" x2="93.17" y2="1257.1" gradientTransform="translate(0 1434.76) scale(1 -1)" gradientUnits="userSpaceOnUse">
      <stop offset="0" stop-color="#cc469b"/>
      <stop offset=".13" stop-color="#af489c"/>
      <stop offset=".36" stop-color="#844c9f"/>
      <stop offset=".56" stop-color="#654ea1"/>
      <stop offset=".73" stop-color="#5150a2"/>
      <stop offset=".85" stop-color="#4b51a3"/>
    </linearGradient>
    <linearGradient id="linear-gradient-6" x1="77.71" y1="1385.09" x2="95.16" y2="1256.7" xlink:href="#linear-gradient-5"/>
    <linearGradient id="linear-gradient-7" x1="101.11" y1="1357.86" x2="101.11" y2="1251.33" gradientTransform="translate(0 1434.76) scale(1 -1)" gradientUnits="userSpaceOnUse">
      <stop offset=".28" stop-color="#cc469b"/>
      <stop offset=".81" stop-color="#4b51a3"/>
    </linearGradient>
    <linearGradient id="linear-gradient-8" x1="101.76" y1="1345.27" x2="145.84" y2="1345.27" gradientTransform="translate(0 1434.76) scale(1 -1)" gradientUnits="userSpaceOnUse">
      <stop offset=".21" stop-color="#f68d1e"/>
      <stop offset=".27" stop-color="#f4761f"/>
      <stop offset=".35" stop-color="#f25e20"/>
      <stop offset=".44" stop-color="#f04b20"/>
      <stop offset=".54" stop-color="#ef3d21"/>
      <stop offset=".68" stop-color="#ef3621"/>
      <stop offset=".94" stop-color="#ef3422"/>
    </linearGradient>
    <linearGradient id="linear-gradient-9" x1="103.31" y1="1374.49" x2="188.08" y2="1344.76" gradientTransform="translate(0 1434.76) scale(1 -1)" gradientUnits="userSpaceOnUse">
      <stop offset=".23" stop-color="#ef3424"/>
      <stop offset=".3" stop-color="#ef3a22"/>
      <stop offset=".39" stop-color="#f14d1e"/>
      <stop offset=".51" stop-color="#f36d17"/>
      <stop offset=".63" stop-color="#f7980d"/>
      <stop offset=".77" stop-color="#fcd001"/>
      <stop offset=".79" stop-color="#fdd900"/>
    </linearGradient>
    <linearGradient id="linear-gradient-10" x1="129.75" y1="1353.71" x2="172.4" y2="1311.07" gradientTransform="translate(0 1434.76) scale(1 -1)" gradientUnits="userSpaceOnUse">
      <stop offset="0" stop-color="#fdd900"/>
      <stop offset=".03" stop-color="#fbc803"/>
      <stop offset=".12" stop-color="#f8a10b"/>
      <stop offset=".21" stop-color="#f57f12"/>
      <stop offset=".3" stop-color="#f36318"/>
      <stop offset=".41" stop-color="#f14e1c"/>
      <stop offset=".52" stop-color="#ef3f1f"/>
      <stop offset=".66" stop-color="#ef3621"/>
      <stop offset=".86" stop-color="#ef3422"/>
    </linearGradient>
    <linearGradient id="linear-gradient-11" x1="103.71" y1="1349.58" x2="165.94" y2="1349.58" gradientTransform="translate(0 1434.76) scale(1 -1)" gradientUnits="userSpaceOnUse">
      <stop offset=".06" stop-color="#ef3422"/>
      <stop offset=".28" stop-color="#ef3621"/>
      <stop offset=".43" stop-color="#ef3f1f"/>
      <stop offset=".55" stop-color="#f14e1c"/>
      <stop offset=".67" stop-color="#f36318"/>
      <stop offset=".77" stop-color="#f57f12"/>
      <stop offset=".87" stop-color="#f8a10b"/>
      <stop offset=".97" stop-color="#fbc803"/>
      <stop offset="1" stop-color="#fdd900"/>
    </linearGradient>
    <linearGradient id="linear-gradient-12" x1="115.04" y1="1378.95" x2="202.96" y2="1335.11" gradientTransform="translate(0 1434.76) scale(1 -1)" gradientUnits="userSpaceOnUse">
      <stop offset="0" stop-color="#ef4323"/>
      <stop offset=".04" stop-color="#ef4821"/>
      <stop offset=".25" stop-color="#f2631b"/>
      <stop offset=".37" stop-color="#f36e19"/>
      <stop offset=".41" stop-color="#f37517"/>
      <stop offset=".48" stop-color="#f58a12"/>
      <stop offset=".55" stop-color="#f8ac0a"/>
      <stop offset=".63" stop-color="#fdd900"/>
    </linearGradient>
    <linearGradient id="linear-gradient-13" x1="100.53" y1="1365.78" x2="185.02" y2="1336.15" gradientTransform="translate(0 1434.76) scale(1 -1)" gradientUnits="userSpaceOnUse">
      <stop offset="0" stop-color="#ef4323"/>
      <stop offset=".05" stop-color="#f2641b" stop-opacity=".89"/>
      <stop offset=".13" stop-color="#f68e11" stop-opacity=".75"/>
      <stop offset=".22" stop-color="#f9af09" stop-opacity=".64"/>
      <stop offset=".3" stop-color="#fbc604" stop-opacity=".56"/>
      <stop offset=".4" stop-color="#fcd401" stop-opacity=".51"/>
      <stop offset=".5" stop-color="#fdd900" stop-opacity=".5"/>
    </linearGradient>
    <linearGradient id="linear-gradient-14" x1="122.6" y1="1336.11" x2="135.1" y2="1357.69" gradientTransform="translate(0 1434.76) scale(1 -1)" gradientUnits="userSpaceOnUse">
      <stop offset=".09" stop-color="#fdd900"/>
      <stop offset=".16" stop-color="#fcd103"/>
      <stop offset=".26" stop-color="#fabe0c"/>
      <stop offset=".38" stop-color="#f89e1a"/>
      <stop offset=".39" stop-color="#f89b1c"/>
      <stop offset=".56" stop-color="#f4711e"/>
      <stop offset=".76" stop-color="#f04520"/>
      <stop offset=".86" stop-color="#ef3422"/>
    </linearGradient>
    <linearGradient id="linear-gradient-15" x1="109.48" y1="1321.86" x2="109.48" y2="1270.41" gradientTransform="translate(0 1434.76) scale(1 -1)" gradientUnits="userSpaceOnUse">
      <stop offset=".27" stop-color="#c94799"/>
      <stop offset=".37" stop-color="#c54798"/>
      <stop offset=".46" stop-color="#b94898"/>
      <stop offset=".55" stop-color="#a64997"/>
      <stop offset=".64" stop-color="#8b4b97"/>
      <stop offset=".65" stop-color="#864c97"/>
    </linearGradient>
    <linearGradient id="linear-gradient-16" x1="109.48" y1="1321.86" x2="109.48" y2="1270.41" gradientTransform="translate(0 1434.76) scale(1 -1)" gradientUnits="userSpaceOnUse">
      <stop offset=".43" stop-color="#c94799"/>
      <stop offset=".5" stop-color="#c54798"/>
      <stop offset=".57" stop-color="#ba4898"/>
      <stop offset=".63" stop-color="#a74998"/>
      <stop offset=".7" stop-color="#8e4b97"/>
      <stop offset=".71" stop-color="#864c97"/>
    </linearGradient>
    <linearGradient id="linear-gradient-17" x1="90.29" y1="1343.16" x2="90.29" y2="1267.57" gradientTransform="translate(0 1434.76) scale(1 -1)" gradientUnits="userSpaceOnUse">
      <stop offset="0" stop-color="#c44699"/>
      <stop offset=".13" stop-color="#ac489b"/>
      <stop offset=".39" stop-color="#6e4ea0"/>
      <stop offset=".47" stop-color="#5b50a2"/>
      <stop offset=".71" stop-color="#5b50a2"/>
      <stop offset=".83" stop-color="#5550a2"/>
      <stop offset=".99" stop-color="#4451a2"/>
      <stop offset="1" stop-color="#4352a3"/>
    </linearGradient>
    <linearGradient id="linear-gradient-18" x1="78.09" y1="1382.29" x2="71.96" y2="1320.57" gradientTransform="translate(0 1434.76) scale(1 -1)" gradientUnits="userSpaceOnUse">
      <stop offset=".2" stop-color="#c94799"/>
      <stop offset=".3" stop-color="#c34799"/>
      <stop offset=".42" stop-color="#b2489a"/>
      <stop offset=".57" stop-color="#964a9c"/>
      <stop offset=".73" stop-color="#704ea0"/>
      <stop offset=".86" stop-color="#4b51a3"/>
    </linearGradient>
    <linearGradient id="linear-gradient-19" x1="67.2" y1="1350.82" x2="-1.48" y2="1280.79" gradientTransform="translate(0 1434.76) scale(1 -1)" gradientUnits="userSpaceOnUse">
      <stop offset=".15" stop-color="#4b51a3"/>
      <stop offset=".3" stop-color="#5c4fa1"/>
      <stop offset=".61" stop-color="#8a4b9f"/>
      <stop offset="1" stop-color="#cc469b"/>
    </linearGradient>
    <linearGradient id="linear-gradient-20" x1="68.66" y1="1358.72" x2="56.13" y2="1254.17" gradientTransform="translate(0 1434.76) scale(1 -1)" gradientUnits="userSpaceOnUse">
      <stop offset=".04" stop-color="#4a51a4"/>
      <stop offset=".05" stop-color="#4a50a3"/>
      <stop offset=".21" stop-color="#5250a3"/>
      <stop offset=".33" stop-color="#604ea2"/>
      <stop offset=".56" stop-color="#864b9f"/>
      <stop offset=".87" stop-color="#c3469b"/>
      <stop offset=".91" stop-color="#cc469b"/>
    </linearGradient>
    <linearGradient id="linear-gradient-21" x1="0" y1="1318" x2="67.04" y2="1318" gradientTransform="translate(0 1434.76) scale(1 -1)" gradientUnits="userSpaceOnUse">
      <stop offset=".11" stop-color="#c94799"/>
      <stop offset=".24" stop-color="#c34799"/>
      <stop offset=".41" stop-color="#b2489a"/>
      <stop offset=".61" stop-color="#964a9c"/>
      <stop offset=".82" stop-color="#704ea0"/>
      <stop offset="1" stop-color="#4b51a3"/>
    </linearGradient>
    <linearGradient id="linear-gradient-22" x1="39.5" y1="1275.17" x2="90.44" y2="1365.29" gradientTransform="translate(0 1434.76) scale(1 -1)" gradientUnits="userSpaceOnUse">
      <stop offset=".1" stop-color="#c44699"/>
      <stop offset=".36" stop-color="#8e4a9d"/>
      <stop offset=".63" stop-color="#5250a3"/>
      <stop offset=".78" stop-color="#5b50a2"/>
    </linearGradient>
  </defs>
  <path class="cls-4" d="M135.8,203.65v-59.27c0-22.78-15.92-34.04-27.43-34.04h-12.98v59.76c0,22.04,13.71,34.29,40.41,33.55Z"/>
  <path class="cls-19" d="M108.37,110.34h-2.69v85.14c2.73,2.29,6,4.11,9.8,5.45v-89.3c-2.43-.86-4.85-1.3-7.1-1.3h-.01Z"/>
  <path class="cls-22" d="M115.47,111.64v89.3c3.01,1.07,6.36,1.83,10.04,2.27v-85.27c-3.09-2.98-6.58-5.07-10.04-6.3Z"/>
  <path class="cls-28" d="M95.39,110.34v59.76c0,11.07,3.46,19.66,10.29,25.39v-85.14h-10.29Z"/>
  <path class="cls-10" d="M109.65,103.36l3.67,4.59v32.33c0,22.04-16.71,28.65-28.65,28.65s-20.76-9-24.24-18.73-4.59-45.73-1.84-62.08,9.7-26.85,28.84-35.08l22.22,50.33h0Z"/>
  <path class="cls-12" d="M109.33,109.74l6.2,1.9v29.01c0,22.04-16.71,28.65-28.65,28.65s-20.76-9-24.24-18.73-4.59-45.73-1.84-62.08,5.14-21.12,28.84-35.08l19.7,56.34h0Z"/>
  <path class="cls-20" d="M105.61,94.21l-9-20.38v92.89c3.24-1.26,6.35-3.12,9-5.72,0,0,0-66.79,0-66.79Z"/>
  <path class="cls-24" d="M109.84,75.63l32.88-4.59-.37,6.43,3.49,6.98s-5.14,23.14-32.51,23.51l-11.57-11.2,7.16-15.24.92-5.88h0Z"/>
  <path class="cls-23" d="M164.69,111.57s12.86-21.55.98-44.69-33.67-27.55-45.18-26.2c-12.12,1.42-10.9,7.96-10.9,7.96l2.69,29.39s40.9-3.67,52.41,33.55h0Z"/>
  <path class="cls-26" d="M137.02,79.24c-10.33-3.56-20.26-3.5-24.92-3.2l.18,1.97s40.9-3.67,52.41,33.55c-.49-10.78-13.47-27.43-27.67-32.33h0Z"/>
  <path class="cls-8" d="M156.61,79.24c-10.67-15.76-29.99-21.92-46.06-20.13l1.55,16.93c4.66-.3,14.59-.36,24.92,3.2,14.2,4.9,27.18,21.55,27.67,32.33,0,0,2.69-16.41-8.08-32.33Z"/>
  <path class="cls-1" d="M109.59,48.63l.85,9.26c4.3-.49,46.67-4.03,55.97,43.15,0,0,6.93-16.78-6.61-36.98-13.74-20.49-42.65-19.86-49.86-17.03-.4.95-.34,1.6-.34,1.6h-.01Z"/>
  <path class="cls-13" d="M164.98,110.62c1.49-5.34,1.35-11.01-.21-16.33-11.82-40.08-50.23-36.86-54.32-36.4l.11,1.22c16.07-1.79,35.39,4.37,46.06,20.13,10.78,15.92,8.08,32.33,8.08,32.33.1-.31.19-.63.28-.95Z"/>
  <path class="cls-18" d="M129.86,81.5c-7.71-2.2-16.35-3.12-13.96,5.33,1.58,5.6,8.16,12.72,14.29,17.16,8.58-4.5,12.7-11.76,14.47-16.06-1.97-1.12-8.38-4.6-14.8-6.43Z"/>
  <path class="cls-7" d="M113.33,107.95l-3.67-4.59-4.04-9.15v66.79c4.55-4.47,7.71-11.14,7.71-20.72v-32.33Z"/>
  <path class="cls-14" d="M113.33,107.95l-3.67-4.59-4.04-9.15v66.79c4.55-4.47,7.71-11.14,7.71-20.72v-32.33Z"/>
  <path class="cls-2" d="M87.43,53.04c-1.22.72-2.37,1.41-3.47,2.08l2.74,32.09.55,7.9v65.72c3.03-.24,6.26-.89,9.37-2.1v-84.88l-9.18-20.8h-.01Z"/>
  <path class="cls-16" d="M113.33,42.81v65.14s-20.02.92-29.02-17.45-.73-32.51,3.12-37.47c0,0,3.4-9.99,7.71-11.69s6.3.61,10.02-.86c3.11-1.23,8.17,2.33,8.17,2.33Z"/>
  <path class="cls-21" d="M113.33,107.95v-6.02c-6.47-.98-15.98-3.75-23.33-11.42-8.35-8.72-7.99-22.17-6.9-30.1-3.05,7.02-4.93,17.58,1.2,30.1,9,18.37,29.02,17.45,29.02,17.45h.01Z"/>
  <path class="cls-25" d="M82.38,56.07c-4.9,5.71-14.79,20.63-15.89,48.88l13.22-2.2s-8.17-19.6,4.24-47.64c-.54.33-1.06.65-1.57.96Z"/>
  <path class="cls-3" d="M0,147.26s4.96-27.37,21.49-48.49c16.53-21.12,37.47-20.94,41.88-20.57,0,0,5.33,2.02,5.33,18-.01,14.9-9.19,50.14-68.7,51.06Z"/>
  <path class="cls-17" d="M53.27,171.57s-14.69-31.59-12-56.57,22.1-36.8,22.1-36.8c0,0,25.07,9.73,22.96,39.49-1.95,27.43-24.24,48.73-33.06,53.88h0Z"/>
  <path class="cls-5" d="M0,147.26c24.27-.37,40.16-6.46,50.48-14.54,21.16-22.44,16.01-46.44,16.01-46.44,0,0-1.47,19.84-21.67,34.16-16.28,11.55-34.59,12.83-41.08,12.9C1.04,141.55,0,147.26,0,147.26h0Z"/>
  <path class="cls-15" d="M67.96,85.36s5.63,17.14-1.22,33.55c-6.65,15.9-22.49,21.91-23.46,22.27,1.41,6.55,3.27,12.66,4.99,17.66,10.94-10.19,25.87-30.97,27.04-47.77,1.22-17.63-7.35-25.71-7.35-25.71Z"/>
  <path class="cls-27" d="M92.39,56.16l-4.96-3.12s-8.82,7.59-9.06,25.96,14.26,34.42,34.95,34.66v-28.79l-19.65-28.53-1.29-.18h0Z"/>
  <circle class="cls-9" cx="100.78" cy="61.97" r="6.49"/>
  <circle class="cls-16" cx="101.88" cy="58.3" r="2.45"/>
  <g>
    <g>
      <path class="cls-6" d="M111.97,24.73l13.01-17.21c.1-.14.15-.31.14-.49l-.16-1.69c-.03-.33-.29-.59-.61-.63L76.64,0s-12.3,12.34-16.39,16.59c-4.52,4.7-17.65,19.13-17.65,19.13l-1.57,2.44c-.11.17-.1.38,0,.55l1,1.46c.08.12.21.19.35.21l26.27,2.71,43.33-18.35Z"/>
      <path class="cls-30" d="M42.37,40.37l26.27,2.71,43.33-18.35,12.91-17.09-46.92-4.19s-12.29,12.15-16.17,16.18c-5.01,5.2-19.42,20.74-19.42,20.74Z"/>
      <path class="cls-29" d="M53.3,49.49s-1.19-15.31-1.78-18.96c-.59-3.64.53-5.02,2.13-6.7,0,0-1.59-.87-3.21.56s-1.33,4.59-.47,9.73c.86,5.15,1.41,15.04,1.41,15.04l1.91.33Z"/>
      <ellipse class="cls-29" cx="52.1" cy="50.69" rx="2.44" ry="2.22" transform="translate(-4.52 5.1) rotate(-5.37)"/>
      <path class="cls-29" d="M53.2,51.03s2.3,3.1,2.67,8.42.25,9.28-1.2,9.93-3.18-.47-3.18-.47c0,0-1.47,1.67-2.82-.63,0,0-.96.47-2.08.58s1.1-10.94,3.02-14.56,1.3-3.56,1.3-3.56l2.29.29Z"/>
    </g>
    <path class="cls-11" d="M122.39,40.49c-3.71.29-6.47,1.24-8.26,2.02-.93.41-3.37.79-10.44,6.63-2.79,2.3-4.97,5.01-6.49,6.38-11.27-1.22-17.87,1.47-21.86,4.28-3.45,2.43-5.27,4.25-8.9,8.25-.08-3.32-.32-12.21-.67-19.07-.45-8.58-1.48-13.17-1.28-14.91.2-1.74,5.37-8.64,18.34-13.92,12.96-5.29,23.6-3.09,24.15-2.4.48.6,11.37,17.2,15.41,22.74Z"/>
  </g>
  <path class="cls-6" d="M122.39,40.49c-3.71.29-6.47,1.24-8.26,2.02-.93.41-3.37.79-10.44,6.63-2.79,2.3-4.97,5.01-6.49,6.38-7.37-.8-15.62-.11-21.86,4.28-3.45,2.43-5.27,4.25-8.9,8.25-.08-3.32-.32-12.21-.67-19.07-.45-8.58-1.48-13.17-1.28-14.91.2-1.74,5.37-8.64,18.34-13.92,12.96-5.29,23.6-3.09,24.15-2.4.48.6,11.37,17.2,15.41,22.74Z"/>
</svg>