<svg width="1200" height="800" viewBox="0 0 1200 800" fill="none" xmlns="http://www.w3.org/2000/svg">
  <defs>
    <linearGradient id="g" x1="0" y1="0" x2="1" y2="1">
      <stop offset="0%" stop-color="#e5e7eb"/>
      <stop offset="100%" stop-color="#d1d5db"/>
    </linearGradient>
  </defs>
  <rect width="1200" height="800" rx="24" fill="url(#g)"/>
  <g opacity="0.4">
    <circle cx="200" cy="150" r="8" fill="#9ca3af"/>
    <circle cx="260" cy="210" r="6" fill="#9ca3af"/>
    <circle cx="320" cy="170" r="5" fill="#9ca3af"/>
    <circle cx="1000" cy="620" r="7" fill="#9ca3af"/>
    <circle cx="1080" cy="560" r="9" fill="#9ca3af"/>
  </g>
  <rect x="100" y="120" width="1000" height="560" rx="16" fill="#f3f4f6" stroke="#e5e7eb"/>
  <rect x="140" y="180" width="360" height="240" rx="12" fill="#e5e7eb"/>
  <rect x="540" y="180" width="420" height="24" rx="6" fill="#e5e7eb"/>
  <rect x="540" y="220" width="360" height="16" rx="6" fill="#e5e7eb"/>
  <rect x="540" y="252" width="380" height="16" rx="6" fill="#e5e7eb"/>
  <rect x="540" y="284" width="340" height="16" rx="6" fill="#e5e7eb"/>
  <rect x="540" y="316" width="300" height="16" rx="6" fill="#e5e7eb"/>
  <rect x="140" y="440" width="820" height="24" rx="6" fill="#e5e7eb"/>
  <rect x="140" y="476" width="760" height="16" rx="6" fill="#e5e7eb"/>
</svg>

